<svg width="28" height="24" viewBox="0 0 28 24" fill="none" xmlns="http://www.w3.org/2000/svg">
<path d="M18.0722 10.68H5.97615C5.16615 10.68 4.49115 11.28 4.49115 12C4.49115 12.72 5.16615 13.32 5.97615 13.32H18.0992C18.9092 13.32 19.5842 12.72 19.5842 12C19.5572 11.256 18.9092 10.68 18.0722 10.68Z" fill="#121212"/>
<path d="M22.7972 3.12H5.97615C5.16615 3.12 4.49115 3.72 4.49115 4.43999C4.49115 5.15999 5.16615 5.75999 5.97615 5.75999H22.8242C23.6342 5.75999 24.3092 5.15999 24.3092 4.43999C24.2822 3.72 23.6342 3.12 22.7972 3.12Z" fill="#121212"/>
<path d="M22.7972 18.216H5.97615C5.16615 18.216 4.49115 18.816 4.49115 19.536C4.49115 20.256 5.16615 20.856 5.97615 20.856H22.8242C23.6342 20.856 24.3092 20.256 24.3092 19.536C24.2822 18.816 23.6342 18.216 22.7972 18.216Z" fill="#121212"/>
</svg>
