<svg width="184" height="30" viewBox="0 0 184 30" fill="none" xmlns="http://www.w3.org/2000/svg">
<path d="M175.507 16.4044C174.783 16.4125 174.061 16.3178 173.363 16.1232L175.46 11.4362L177.558 16.1232C176.893 16.3213 176.201 16.4161 175.507 16.4044ZM182.965 19.9664L178.071 9.2334C177.511 8.06167 176.766 7.54611 175.647 7.54611H175.46C174.295 7.54611 173.549 8.06167 172.99 9.2334L168.096 19.9664C167.63 21.0444 167.956 21.9818 168.935 22.3568C169.139 22.4541 169.36 22.5082 169.586 22.5157C169.811 22.5232 170.036 22.484 170.246 22.4005C170.456 22.3169 170.646 22.1909 170.806 22.0302C170.965 21.8695 171.09 21.6775 171.172 21.4663L172.291 19.1228C173.377 19.4645 174.509 19.6384 175.647 19.6384C176.74 19.654 177.829 19.4795 178.863 19.1228L179.935 21.4663C180.018 21.6775 180.142 21.8695 180.302 22.0302C180.461 22.1909 180.652 22.3169 180.861 22.4005C181.071 22.484 181.296 22.5232 181.522 22.5157C181.747 22.5082 181.969 22.4541 182.173 22.3568C182.381 22.2527 182.567 22.1081 182.72 21.9315C182.873 21.7548 182.99 21.5495 183.063 21.3273C183.137 21.1052 183.166 20.8706 183.149 20.637C183.132 20.4035 183.07 20.1756 182.965 19.9664ZM164.833 19.0759H157.328L164.74 12.3736C165.812 11.4362 166.231 10.6395 166.231 9.65522V9.51461C166.231 8.29601 165.485 7.54611 164.134 7.54611H154.667C154.431 7.53399 154.195 7.57177 153.975 7.65699C153.755 7.74221 153.554 7.87298 153.388 8.04084C153.221 8.2087 153.091 8.40992 153.006 8.63149C152.921 8.85306 152.883 9.09005 152.896 9.32714C152.886 9.55944 152.926 9.79114 153.013 10.0066C153.099 10.2221 153.231 10.4163 153.399 10.5762C153.567 10.7361 153.767 10.858 153.986 10.9336C154.204 11.0092 154.437 11.0367 154.667 11.0144H161.612L154.434 17.5292C153.035 18.7947 152.709 19.5446 152.709 20.482V20.6695C152.709 21.8881 153.501 22.638 154.76 22.638H164.782C165.014 22.6511 165.246 22.6155 165.464 22.5336C165.681 22.4517 165.88 22.3253 166.046 22.1622C166.213 21.9992 166.344 21.8032 166.431 21.5865C166.518 21.3699 166.56 21.1374 166.553 20.9038C166.587 20.6639 166.566 20.4194 166.493 20.1886C166.42 19.9577 166.296 19.7465 166.13 19.5707C165.964 19.395 165.761 19.2591 165.535 19.1735C165.31 19.0878 165.068 19.0544 164.828 19.0759H164.833ZM149.12 19.0759H141.615L149.027 12.3736C150.099 11.4362 150.518 10.6395 150.518 9.65522V9.51461C150.518 8.29601 149.773 7.54611 148.421 7.54611H138.959C138.723 7.53399 138.487 7.57177 138.267 7.65699C138.046 7.74221 137.846 7.87298 137.679 8.04084C137.512 8.2087 137.382 8.40992 137.298 8.63149C137.213 8.85306 137.175 9.09005 137.187 9.32714C137.178 9.55944 137.217 9.79114 137.304 10.0066C137.391 10.2221 137.523 10.4163 137.691 10.5762C137.859 10.7361 138.059 10.858 138.277 10.9336C138.496 11.0092 138.728 11.0367 138.959 11.0144H145.904L138.725 17.5292C137.327 18.7947 137.001 19.5446 137.001 20.482V20.6695C137.001 21.8881 137.793 22.638 139.052 22.638H149.073C149.305 22.6511 149.538 22.6155 149.755 22.5336C149.973 22.4517 150.171 22.3253 150.338 22.1622C150.504 21.9992 150.635 21.8032 150.723 21.5865C150.81 21.3699 150.851 21.1374 150.845 20.9038C150.938 19.779 150.285 19.0759 149.12 19.0759ZM132.2 7.35863C131.955 7.34194 131.709 7.37741 131.478 7.46272C131.247 7.54804 131.037 7.68129 130.861 7.85377C130.685 8.02625 130.548 8.2341 130.457 8.46374C130.366 8.69339 130.325 8.93967 130.335 9.18653V20.8101C130.329 21.0558 130.374 21.3001 130.466 21.5278C130.558 21.7554 130.696 21.9615 130.871 22.1331C131.046 22.3047 131.254 22.4381 131.483 22.525C131.712 22.6118 131.956 22.6503 132.2 22.638C132.445 22.6547 132.691 22.6192 132.921 22.5339C133.152 22.4486 133.362 22.3153 133.538 22.1428C133.714 21.9704 133.852 21.7625 133.942 21.5329C134.033 21.3032 134.075 21.0569 134.064 20.8101V9.18653C134.063 8.94286 134.014 8.70186 133.919 8.47756C133.824 8.25326 133.686 8.05014 133.513 7.88003C133.339 7.70992 133.134 7.57622 132.908 7.48671C132.683 7.39719 132.442 7.35365 132.2 7.35863ZM122.271 14.7171H118.076V10.9207H122.271C122.52 10.9155 122.766 10.9624 122.995 11.0584C123.224 11.1544 123.431 11.2974 123.602 11.4782C123.773 11.659 123.905 11.8737 123.989 12.1086C124.073 12.3435 124.107 12.5934 124.089 12.8423C124.106 13.0888 124.071 13.3361 123.986 13.568C123.901 13.7999 123.768 14.0111 123.597 14.188C123.425 14.365 123.219 14.5035 122.99 14.5947C122.762 14.6858 122.517 14.7275 122.271 14.7171ZM122.271 7.49924H116.258C116.023 7.48712 115.787 7.5249 115.567 7.61012C115.346 7.69534 115.146 7.82611 114.979 7.99397C114.812 8.16183 114.682 8.36305 114.597 8.58462C114.513 8.80619 114.475 9.04318 114.487 9.28027V20.857C114.48 21.0967 114.523 21.3353 114.613 21.5576C114.702 21.7799 114.837 21.9811 115.008 22.1485C115.178 22.3158 115.382 22.4458 115.605 22.53C115.829 22.6143 116.067 22.651 116.305 22.638C116.541 22.6501 116.777 22.6123 116.997 22.5271C117.217 22.4419 117.417 22.3111 117.584 22.1432C117.751 21.9754 117.881 21.7742 117.966 21.5526C118.051 21.331 118.088 21.094 118.076 20.857V18.1385H122.271C125.534 18.1385 127.585 15.842 127.585 12.7955C127.585 9.74896 125.492 7.49924 122.276 7.49924H122.271ZM99.9023 19.2165C97.525 19.2165 95.847 17.4355 95.847 14.9983C95.847 13.9169 96.2742 12.8797 97.0348 12.115C97.7953 11.3503 98.8267 10.9207 99.9023 10.9207C100.978 10.9207 102.009 11.3503 102.77 12.115C103.53 12.8797 103.958 13.9169 103.958 14.9983C103.958 17.4355 102.373 19.2165 99.9023 19.2165ZM99.9023 7.35863C98.8954 7.33313 97.8939 7.51295 96.958 7.88725C96.0222 8.26155 95.1714 8.82258 94.457 9.53649C93.7427 10.2504 93.1796 11.1024 92.8016 12.0411C92.4236 12.9798 92.2387 13.9858 92.2579 14.9983C92.264 17.0369 93.0754 18.9895 94.5133 20.4266C95.9513 21.8638 97.8981 22.6676 99.9256 22.6614C101.953 22.6552 103.895 21.8394 105.324 20.3935C106.753 18.9476 107.553 16.99 107.547 14.9514C107.547 10.5926 104.237 7.35863 99.9023 7.35863ZM82.6092 19.0291H79.5328V10.9676H82.6092C85.0796 10.9676 86.7576 12.4674 86.7576 14.9514C86.7576 17.4355 85.1262 19.0291 82.6092 19.0291ZM82.6092 7.49924H77.7149C77.4716 7.4972 77.2305 7.54466 77.006 7.63876C76.7814 7.73285 76.5781 7.87164 76.4083 8.04677C76.2385 8.22191 76.1057 8.42977 76.0178 8.65785C75.9299 8.88594 75.8888 9.12954 75.897 9.374V20.7163C75.8902 20.9561 75.933 21.1947 76.0225 21.417C76.1121 21.6393 76.2466 21.8405 76.4174 22.0078C76.5882 22.1752 76.7918 22.3052 77.0151 22.3894C77.2384 22.4737 77.4767 22.5104 77.7149 22.4974H82.6092C86.9907 22.4974 90.3002 19.4509 90.3002 14.9514C90.3002 10.452 86.9907 7.49924 82.6092 7.49924ZM65.8754 19.2165C63.4982 19.2165 61.8202 17.4355 61.8202 14.9983C61.8202 13.9169 62.2474 12.8797 63.0079 12.115C63.7684 11.3503 64.7999 10.9207 65.8754 10.9207C66.9509 10.9207 67.9824 11.3503 68.7429 12.115C69.5034 12.8797 69.9307 13.9169 69.9307 14.9983C69.9307 17.4355 68.3459 19.2165 65.8754 19.2165ZM65.8754 7.35863C64.8686 7.33313 63.867 7.51295 62.9312 7.88725C61.9953 8.26155 61.1446 8.82258 60.4302 9.53649C59.7159 10.2504 59.1527 11.1024 58.7748 12.0411C58.3968 12.9798 58.2118 13.9858 58.231 14.9983C58.2372 17.0369 59.0485 18.9895 60.4865 20.4266C61.9245 21.8638 63.8713 22.6676 65.8987 22.6614C67.9261 22.6552 69.8681 21.8394 71.2973 20.3935C72.7265 18.9476 73.526 16.99 73.5198 14.9514C73.5198 10.5926 70.2104 7.35863 65.8754 7.35863ZM48.629 19.0291H45.5526V10.9676H48.629C51.0994 10.9676 52.7774 12.4674 52.7774 14.9514C52.7774 17.4355 51.0994 19.0291 48.629 19.0291ZM48.629 7.49924H43.73C43.4868 7.4972 43.2456 7.54466 43.0211 7.63876C42.7965 7.73285 42.5933 7.87164 42.4234 8.04677C42.2536 8.22191 42.1208 8.42977 42.0329 8.65785C41.9451 8.88594 41.904 9.12954 41.9122 9.374V20.7163C41.9054 20.9561 41.9481 21.1947 42.0377 21.417C42.1272 21.6393 42.2617 21.8405 42.4325 22.0078C42.6034 22.1752 42.8069 22.3052 43.0302 22.3894C43.2536 22.4737 43.4918 22.5104 43.73 22.4974H48.6243C53.0058 22.4974 56.3153 19.4509 56.3153 14.9514C56.3153 10.452 52.9639 7.49924 48.629 7.49924Z" fill="#121212"/>
<path d="M14.1595 0C22.8014 0 29.4482 5.99458 29.4482 14.881C29.4482 23.7674 22.8014 29.9963 14.1502 29.9963H4.4363C3.52852 30.0384 2.64124 29.7165 1.96922 29.1014C1.29719 28.4863 0.895337 27.6282 0.851849 26.7155V3.74954C0.825438 3.28209 0.891182 2.81399 1.0453 2.37217C1.19942 1.93035 1.43887 1.52352 1.74988 1.17507C2.0609 0.826618 2.43735 0.543421 2.85758 0.34176C3.27782 0.1401 3.73355 0.0239539 4.19858 0L14.1595 0Z" fill="#FF781A"/>
<path d="M24.1065 11.666C24.0599 12.0363 23.6404 12.0363 23.4353 11.7129C22.8293 10.6864 22.0369 10.4943 20.7831 10.4005C19.8508 10.3537 18.7648 10.4474 17.716 10.4474H17.6694L17.5948 10.4052C17.5526 10.37 17.5259 10.3195 17.5202 10.2646C17.7067 9.37877 18.4525 7.74771 19.2402 7.59773C19.6085 7.55086 20.4521 7.45712 20.9136 7.45712C23.0484 7.45244 24.1997 9.93652 24.1065 11.666ZM11.9967 20.1541C13.573 20.576 15.2076 20.7344 16.835 20.6228C18.9662 20.4773 21.0278 19.8008 22.834 18.6542C22.1628 20.44 19.4919 21.5601 16.9749 21.8273C16.9749 21.9679 16.9283 22.057 16.9283 22.1976C18.5287 22.132 20.0902 21.682 21.4823 20.8852C21.0161 22.6147 18.6855 23.3224 16.5507 23.463C16.4979 23.591 16.4355 23.7148 16.3643 23.8333C17.4207 23.8568 18.4747 23.7225 19.4919 23.4349C18.5084 25.2628 14.3273 26.5283 10.7941 24.841C11.5317 23.3857 11.9453 21.7863 12.0061 20.1541H11.9967ZM23.687 7.69147C23.2966 7.31797 22.8365 7.02587 22.3333 6.83201C21.8301 6.63814 21.2938 6.54635 20.7551 6.56192C19.3567 6.56192 18.2008 6.93218 16.4761 6.97905C15.3108 7.02592 14.2434 4.46216 12.8497 4.1247C12.7566 3.84962 12.5992 3.60099 12.3908 3.39965C12.1824 3.19831 11.929 3.05012 11.6519 2.9675C11.3748 2.88488 11.0821 2.87023 10.7982 2.92479C10.5144 2.97934 10.2476 3.10151 10.0204 3.28105C9.23265 2.81236 8.00209 3.05139 8.00209 3.95597C7.12113 3.67944 5.9838 4.14345 6.46856 5.36206C4.28246 5.40893 3.91423 7.3915 5.34988 7.56023C3.40616 8.6148 4.29179 10.4896 5.87659 10.1427C6.16092 12.9549 7.41012 16.6014 5.36386 17.4966C4.39627 17.734 3.38261 17.7015 2.43197 17.4028L0.847168 16.9622V18.4105C2.16039 18.7821 3.51959 18.9636 4.88376 18.9495C7.57326 18.673 7.72242 16.4326 7.57326 14.4594C7.42411 12.4862 6.79018 10.3115 7.01858 8.70385L6.92536 8.61011C5.95117 9.63655 5.2986 9.36002 5.20538 9.02725C5.09817 8.38982 6.2355 7.55086 6.90671 7.26964C6.90671 7.22277 6.95332 7.17591 6.95332 7.12904C6.34737 7.22277 5.60624 7.12904 5.55497 6.7119C5.5037 6.29476 6.57577 5.68546 7.97879 5.82607C8.0254 5.82607 8.0254 5.7792 8.07201 5.7792L7.80166 5.62453C7.73216 5.60839 7.66728 5.57643 7.612 5.53112C7.55671 5.4858 7.51251 5.42833 7.48279 5.36313C7.45308 5.29793 7.43863 5.22675 7.44058 5.15506C7.44253 5.08336 7.46081 5.01308 7.49402 4.94961C7.59776 4.84081 7.72455 4.75693 7.86496 4.70419C8.00537 4.65144 8.1558 4.6312 8.30507 4.64495C8.74187 4.63708 9.17543 4.72171 9.57757 4.89336C9.62419 4.89336 9.62419 4.84649 9.6708 4.84649C9.56866 4.76547 9.47636 4.67266 9.39579 4.56996C9.3394 4.50506 9.30833 4.4218 9.30833 4.33562C9.30833 4.24943 9.3394 4.16617 9.39579 4.10127C9.57822 4.01048 9.78445 3.97973 9.98524 4.01338C10.186 4.04703 10.3712 4.14337 10.5145 4.28875L10.7429 4.51841H10.8175L10.8827 4.47622C10.802 4.39239 10.7526 4.28312 10.7429 4.16689C10.7272 4.1337 10.7183 4.09772 10.7167 4.06104C10.7151 4.02437 10.7207 3.98772 10.7333 3.95326C10.7458 3.91879 10.7651 3.88719 10.79 3.8603C10.8148 3.8334 10.8448 3.81175 10.878 3.79662H10.9247C11.03 3.77762 11.1385 3.78912 11.2375 3.82978C11.3365 3.87045 11.422 3.9386 11.484 4.02628C11.6025 4.206 11.695 4.40167 11.759 4.60746C11.2071 4.63173 10.6669 4.77484 10.1748 5.02712C9.68262 5.2794 9.25008 5.63496 8.90636 6.06979C8.5317 6.62687 8.28683 7.26175 8.18998 7.92717C8.09314 8.59259 8.14682 9.27141 8.34702 9.91308C8.68225 11.3534 9.13275 12.7641 9.6941 14.1313V14.1782C10.8221 17.4028 12.9569 25.3613 2.60444 29.5795C3.14812 29.8406 3.7407 29.9828 4.34306 29.9966H5.41047C7.21045 29.0816 8.78276 27.7713 10.0111 26.1627C14.7562 28.2437 19.0678 27.1845 20.9369 23.7068C21.5225 23.3379 22.017 22.8398 22.3829 22.2502C22.7487 21.6607 22.9763 20.9951 23.0484 20.304C23.3842 19.8843 23.6194 19.3924 23.7358 18.8665C23.8522 18.3407 23.8466 17.7949 23.7196 17.2716C23.673 17.0841 23.4912 17.0841 23.2069 17.2247C19.3474 19.5682 15.9541 19.9291 11.9082 18.7245C11.8004 17.4486 11.6136 16.1807 11.3488 14.9281C11.2556 13.2924 11.7637 12.4909 14.7142 13.4752C16.014 13.8331 17.22 14.473 18.2474 15.3499C18.555 15.5796 18.9885 15.8655 19.2216 15.6593C19.2959 15.565 19.3508 15.4567 19.3828 15.3408C19.4148 15.2249 19.4234 15.1037 19.408 14.9844C19.3196 13.9598 19.0313 12.9628 18.5597 12.0503C19.4431 12.0017 20.3285 12.0017 21.2119 12.0503C21.513 12.0656 21.8025 12.1717 22.0428 12.3548C22.2831 12.5378 22.4629 12.7894 22.559 13.0768C22.8666 14.0142 24.6985 13.7517 24.8383 12.983C25.1133 11.3473 25.2065 9.1866 23.6264 7.69147H23.687ZM3.03793 21.7523C2.30997 21.7055 1.57978 21.7055 0.851829 21.7523V22.7319C2.10103 22.4554 2.87012 22.3147 2.87012 22.3147L3.03793 21.7523Z" fill="black"/>
<path d="M14.6677 11.5112C13.0409 11.141 11.237 10.6676 10.2955 9.26619C10.2955 9.21932 10.2489 9.21932 10.2023 9.21932C10.1956 9.29878 10.2118 9.37848 10.2489 9.44898L10.109 9.49585C9.98116 9.33872 9.90748 9.1441 9.89907 8.94124C9.89067 8.73838 9.94799 8.53827 10.0624 8.37099C10.2608 8.17004 10.5233 8.0458 10.8037 8.02009C11.0842 7.99438 11.3647 8.06883 11.5959 8.23038L11.5493 8.37099C11.3268 8.30989 11.0902 8.32641 10.8781 8.41785C10.8454 8.43357 10.8166 8.45634 10.7936 8.48454C10.7706 8.51274 10.7541 8.54567 10.7452 8.58101C10.7363 8.61635 10.7352 8.65322 10.7421 8.68902C10.749 8.72481 10.7636 8.75865 10.7849 8.78812C11.568 10.3114 13.8986 10.6207 16.6394 10.3864C16.7157 10.3955 16.7929 10.3775 16.8575 10.3356C16.9222 10.2937 16.9703 10.2304 16.9936 10.1567C17.1976 9.22638 17.6468 8.36837 18.2941 7.67263C17.8489 7.74579 17.3979 7.77718 16.947 7.76637C15.5486 7.86011 14.7143 7.67263 14.4766 7.48984L14.5232 7.34923C14.5706 7.37427 14.6234 7.38736 14.677 7.38736C14.7306 7.38736 14.7834 7.37427 14.8308 7.34923C14.8335 7.3238 14.8308 7.29808 14.8227 7.27382C14.8147 7.24956 14.8016 7.22732 14.7842 7.20862C14.5232 6.96021 13.3113 5.69942 13.3113 5.69942C13.1714 4.58861 11.6099 4.58861 11.0319 5.61974L10.8455 5.57288C10.8846 5.37227 10.9622 5.18124 11.0739 5.01044C10.5048 5.16336 9.99475 5.48539 9.61055 5.93443C9.22634 6.38348 8.98582 6.93864 8.92043 7.52733C8.36574 12.3033 15.5719 11.1785 17.6275 13.1236C17.6741 13.1704 17.7674 13.311 17.814 13.2173C17.8606 13.1236 16.9796 11.9987 14.6537 11.4878L14.6677 11.5112ZM12.1646 5.74629C12.398 5.74433 12.6261 5.81548 12.8174 5.94987C13.0087 6.08426 13.1536 6.27521 13.232 6.4962C13.4697 7.01177 13.4185 7.52265 13.0922 7.66794C12.8588 7.6814 12.6277 7.61575 12.4359 7.48148C12.2441 7.34722 12.1026 7.15211 12.0341 6.9274C11.9875 6.83366 11.9875 6.7868 11.9409 6.69774H11.9875C12.028 6.74049 12.0797 6.77071 12.1367 6.78482C12.1937 6.79894 12.2535 6.79637 12.3091 6.77742C12.3664 6.71297 12.3981 6.62954 12.3981 6.54307C12.3981 6.45661 12.3664 6.37317 12.3091 6.30873C12.2802 6.23225 12.2302 6.16564 12.1649 6.11667C12.0997 6.0677 12.022 6.0384 11.9409 6.0322L11.8943 5.98533C11.9617 5.88347 12.0573 5.80364 12.1693 5.75567L12.1646 5.74629ZM22.8481 18.6495C21.0423 19.7977 18.9806 20.4758 16.8491 20.6227C15.2299 20.7062 13.6073 20.5483 12.0341 20.154C12.0337 20.6262 11.9869 21.0972 11.8943 21.5601C13.2514 21.8816 14.6392 22.0544 16.0334 22.0756C15.7291 23.4375 15.0261 24.6765 14.0151 25.633C16.4855 25.7221 18.7788 24.7425 19.492 23.4348C18.4814 23.7479 17.4258 23.8889 16.369 23.852C16.4156 23.7114 16.5088 23.6223 16.5555 23.4817C18.6949 23.388 21.0209 22.6849 21.487 20.9039C20.095 21.7007 18.5334 22.1507 16.933 22.2162C16.933 22.0756 16.9796 21.9866 16.9796 21.846C19.4734 21.5366 22.1396 20.4399 22.8387 18.6588" fill="white"/>
</svg>
